<svg xmlns="http://www.w3.org/2000/svg" xmlns:xlink="http://www.w3.org/1999/xlink" width="162" height="162" viewBox="0 0 162 162">
<defs><path id="star" d="M178.34 777.45l-18.07-1.7-4.58 17.56-16.4-7.78-10.3 14.93-12.74-12.91-14.8 10.5-7.55-16.5-17.5 4.82-1.46-18.09-18.08-1.46 4.81-17.49-16.5-7.56 10.51-14.8-12.92-12.74 14.94-10.3-7.78-16.4 17.56-4.57-1.7-18.07 18.06 1.7 4.58-17.55 16.39 7.78 10.3-14.94 12.75 12.92 14.8-10.51 7.55 16.5 17.5-4.82 1.46 18.09 18.08 1.46-4.81 17.5 16.5 7.55-10.51 14.8 12.92 12.74-14.94 10.3 7.78 16.4-17.56 4.58z"/></defs>
<g><g transform="translate(-41 -640)"><use fill="#a5194a" xlink:href="#star"/></g></g>
</svg>
